<mxfile host="app.diagrams.net" modified="2024-05-12T03:20:37.226Z" agent="Mozilla/5.0 (Windows NT 10.0; Win64; x64) AppleWebKit/537.36 (KHTML, like Gecko) Chrome/124.0.0.0 Safari/537.36 Edg/124.0.0.0" version="24.4.0" etag="h1hM3A5REqhgHtcV9pO9" type="github">
  <diagram name="PÃ¡gina-1" id="mIUVklFKKJ3fh8bqNdOG">
    <mxGraphModel>
      <root>
        <mxCell id="0" />
        <mxCell id="1" parent="0" />
      </root>
    </mxGraphModel>
  </diagram>
</mxfile>
